<svg enable-background="new 0 0 1024 1024" viewBox="0 0 1024 1024" xmlns="http://www.w3.org/2000/svg"><circle cx="512" cy="512" fill="#ee2f5a" r="512"/><g fill="#fff"><path d="m591.5 293.5c-120.5-43.8-254.2 18.5-298 139s18.5 254.2 139 298 254.2-18.5 298-139-18.5-254.1-139-298zm-79.5 474.5c-141.2 0-256-114.8-256-256s114.8-256 256-256 256 114.8 256 256-114.8 256-256 256z"/><path d="m446.6 379.7v264.6l229.1-132.3zm21.9 38 163.3 94.3-163.3 94.3z"/><path d="m393.9 408.6v206.8l179.1-103.4zm21.9 38 113.3 65.4-113.3 65.4z"/></g></svg>